<svg viewBox="0 0 83 83" xmlns="http://www.w3.org/2000/svg" xmlns:xlink="http://www.w3.org/1999/xlink"><linearGradient id="a" gradientUnits="userSpaceOnUse" x1="52" x2="52" y1="3" y2="80"><stop offset="0" stop-color="#0b2943"/><stop offset="1" stop-color="#133553"/></linearGradient><linearGradient id="b" gradientUnits="userSpaceOnUse" x1="49.418" x2="59.33" y1="46.547" y2="36.492"><stop offset="0" stop-color="#133553"/><stop offset="1" stop-color="#fff"/></linearGradient><linearGradient id="c" gradientUnits="userSpaceOnUse" x1="18.5" x2="18.5" y1="24" y2="80"><stop offset="0" stop-color="#0b2842"/><stop offset="1" stop-color="#133553"/></linearGradient><linearGradient id="d" gradientUnits="userSpaceOnUse" x1="19" x2="19" y1="23.801" y2="60"><stop offset="0" stop-color="#72ffbc"/><stop offset=".506" stop-color="#6fffed"/><stop offset="1" stop-color="#2dd9ec"/></linearGradient><clipPath id="e"><path d="m23.851 10.667h59v10h-59z"/></clipPath><clipPath id="f"><path d="m34.825 28.05h33.234v28.018h-33.234z"/></clipPath><radialGradient id="g" cx="-1618.539" cy="-75.977" gradientTransform="matrix(14.147 0 0 13.938 22946.475 1100.718)" gradientUnits="userSpaceOnUse" r="1"><stop offset=".339" stop-color="#fc71f0"/><stop offset=".494" stop-color="#d670fb"/><stop offset=".911" stop-color="#bc70fb"/></radialGradient><rect fill="#187cab" height="81" rx="4" width="60" x="22" y="1"/><rect fill="url(#a)" height="77" rx="3" width="56" x="24" y="3"/><path d="m49.5 6h5a.5.5 0 0 1 0 1h-5a.5.5 0 0 1 0-1z" fill="#fff"/><g clip-path="url(#e)"><path d="m23.386 20.482a.5.5 0 0 0 .929.369zm.465.184.465.185v-.002l.004-.011.018-.044.072-.172a21.23 21.23 0 0 1 1.254-2.499c.405-.685.863-1.345 1.337-1.829.489-.499.913-.725 1.249-.725v-1c-.753 0-1.424.474-1.963 1.025-.555.566-1.061 1.305-1.484 2.02a22.564 22.564 0 0 0 -1.314 2.617l-.077.184-.02.049-.005.013v.004l.465.186zm4.4-5.097c.89 0 1.435.425 2.023.953.554.498 1.243 1.209 2.305 1.209v-1c-.601 0-.987-.37-1.637-.953-.616-.553-1.404-1.209-2.691-1.209zm4.328 2.161c.568 0 1.101-.268 1.569-.583.473-.318.955-.74 1.412-1.129.469-.4.92-.773 1.369-1.049.45-.276.852-.424 1.223-.424v-1c-.633 0-1.222.25-1.746.571-.524.322-1.03.744-1.494 1.14-.478.407-.908.782-1.322 1.06-.419.282-.747.412-1.01.412v1.002zm5.573-3.183c.383 0 .761.132 1.17.368.416.24.825.563 1.286.92.882.682 1.954 1.497 3.325 1.497v-1c-.981 0-1.794-.577-2.713-1.288-.439-.34-.909-.713-1.398-.995-.495-.286-1.049-.502-1.67-.502zm5.781 2.784c.71 0 1.459-.285 2.187-.652.734-.371 1.519-.865 2.294-1.337.786-.479 1.572-.942 2.349-1.287.779-.345 1.516-.556 2.204-.556v-1c-.883 0-1.767.268-2.609.642-.843.374-1.679.868-2.465 1.347-.797.486-1.535.95-2.224 1.298-.695.351-1.27.545-1.736.545zm9.034-3.831c1.496 0 2.532.315 3.24.622.358.155.635.31.867.436.111.061.225.122.328.168.092.041.24.1.404.1v-1c.059 0 .074.018.003-.014a4.512 4.512 0 0 1 -.257-.132c-.224-.123-.541-.299-.947-.476-.819-.356-1.991-.705-3.638-.705v1z" fill="#bd70fc"/><path d="m57.876 14.208h21.916" fill="none" opacity=".25" stroke="#187cab" stroke-linecap="square"/></g><g clip-path="url(#f)" fill-rule="evenodd"><path d="m51.46 28.096c-9.149 0-16.565 7.311-16.565 16.329 0 4.509 1.854 8.592 4.852 11.547l2.089-2.059c-2.497-2.441-4.044-5.825-4.044-9.566 0-7.441 6.119-13.473 13.668-13.473s13.668 6.032 13.668 13.473c0 3.738-1.544 7.119-4.038 9.56l2.084 2.064c2.997-2.955 4.851-7.037 4.851-11.546 0-9.018-7.416-16.329-16.565-16.329z" fill="#0c628a"/><path d="m34.928 44.379c0-9.018 7.416-16.329 16.565-16.329 4.582 0 8.73 1.834 11.729 4.798l-2.009 1.981a13.726 13.726 0 0 0 -9.72-4.001c-7.549 0-13.668 6.032-13.668 13.473 0 3.74 1.547 7.124 4.043 9.566l-2.088 2.059c-2.998-2.955-4.852-7.037-4.852-11.546z" fill="url(#g)"/><path d="m58.683 36.623-9.277 8.262 1.675 1.651 8.381-9.145z" fill="url(#b)"/></g><rect fill="#187cab" height="60" rx="4" width="35" x="1" y="22"/><rect fill="url(#c)" height="56" rx="3" width="31" x="3" y="24"/><circle cx="19" cy="51" fill="none" r="8.5" stroke="url(#d)"/><path d="m17.767 50.955h.645v1.55a2.022 2.022 0 0 1 -.66.367 2.41 2.41 0 0 1 -.776.128c-.374 0-.711-.085-1.012-.256-.3-.174-.536-.413-.707-.717s-.257-.646-.257-1.028.086-.724.257-1.028.407-.541.707-.711a2.021 2.021 0 0 1 1.022-.261c.307 0 .587.054.839.161s.463.265.634.472l-.43.444a1.34 1.34 0 0 0 -1.011-.444 1.38 1.38 0 0 0 -.692.172 1.252 1.252 0 0 0 -.472.483 1.47 1.47 0 0 0 -.168.711c0 .259.056.493.168.7.115.207.273.37.472.489.203.118.432.178.687.178.287 0 .538-.067.755-.2v-1.211zm3.257 2.045c-.374 0-.711-.085-1.011-.256a1.882 1.882 0 0 1 -.708-.717c-.171-.307-.257-.65-.257-1.028s.086-.719.257-1.022c.171-.307.407-.546.708-.717.3-.174.638-.261 1.011-.261s.711.087 1.011.261c.3.17.536.407.708.711.171.304.257.646.257 1.028s-.086.724-.257 1.028a1.875 1.875 0 0 1 -.708.717c-.3.17-.638.256-1.011.256zm0-.634c.244 0 .465-.057.66-.172.196-.118.349-.282.461-.489.112-.211.168-.446.168-.706s-.056-.493-.168-.7a1.21 1.21 0 0 0 -.461-.489c-.196-.118-.416-.178-.66-.178a1.244 1.244 0 0 0 -1.121.667c-.112.207-.168.441-.168.7s.056.494.168.706c.112.207.265.37.461.489.196.115.416.172.66.172z" fill="#fdfbf9"/><path d="m13.5 27h10a.5.5 0 0 1 0 1h-10a.5.5 0 0 1 0-1z" fill="#fff"/></svg>